<svg xmlns="http://www.w3.org/2000/svg" width="43" height="36" viewBox="0 0 43 36"><g><g><path fill="#f3b732" d="M14.137.093c2.288 0 4.581-.09 6.865.016C28.836.475 34.71 3.88 37.907 11.28c.19.439.413.59.868.578.981-.026 1.964.028 2.942-.021.627-.032.79.208.762.791-.04.848-.056 1.703.004 2.549.05.687-.24.843-.85.807-.684-.04-1.374.014-2.059-.016-.516-.023-.718.138-.607.676.202.97.2 1.948-.012 2.919-.093.423.038.596.486.584.784-.022 1.57.018 2.353-.014.501-.021.704.131.684.659a40.253 40.253 0 0 0 0 2.844c.017.516-.165.688-.676.672-1.013-.03-2.028.009-3.04-.016-.45-.011-.686.123-.876.568-2.857 6.695-8.226 9.943-15.178 10.995-2.83.428-5.679.158-8.518.206-2.615.045-5.232-.012-7.847.024-.652.009-.82-.193-.815-.826.028-3.367-.005-6.735.03-10.103.006-.69-.19-.907-.88-.871-1.076.055-2.159-.028-3.235.03-.712.038-.904-.224-.859-.893.053-.781.058-1.572 0-2.352-.054-.709.128-.996.901-.947 1.107.071 2.223-.006 3.334.028.538.017.76-.125.734-.704a37.458 37.458 0 0 1-.004-2.844c.013-.476-.169-.622-.628-.613-1.177.023-2.355-.017-3.53.017-.566.017-.84-.107-.807-.748.05-.913.037-1.831.004-2.746-.018-.516.17-.684.678-.672 1.144.029 2.291-.03 3.433.023.695.033.881-.202.874-.882-.032-3.302.015-6.605-.035-9.906C5.526.236 5.791.047 6.584.063c2.517.049 5.035.018 7.553.018zm18.798 11.774c.887.009.915-.196.496-.889-2.693-4.455-6.76-6.629-11.828-6.883-3.649-.184-7.315-.026-10.974-.066-.694-.007-.79.266-.783.857.03 2.025.05 4.052-.008 6.075-.022.772.25.911.95.905 3.691-.032 7.382-.015 11.073-.015 3.691 0 7.383-.022 11.074.016zM10.542 24.298c-.593-.001-.699.233-.694.753.022 2.09.036 4.18-.006 6.269-.013.662.211.813.833.807 3.298-.028 6.597.029 9.895-.029 3.234-.056 6.24-.967 8.93-2.785 1.836-1.24 3.284-2.838 4.345-5.003-7.892 0-15.597.006-23.303-.012zm23.644-4.116c.797.009 1.037-.251.992-.999a19.5 19.5 0 0 1 0-2.255c.04-.709-.19-.966-.943-.949-2.223.05-4.447.018-6.67.018-5.526 0-11.052.016-16.577-.017-.843-.005-1.276.137-1.146 1.097.083.61.073 1.247.002 1.86-.109.946.15 1.276 1.193 1.255 3.791-.074 7.585-.029 11.378-.029 3.924 0 7.848-.023 11.771.019z"/></g></g></svg>