<svg xmlns="http://www.w3.org/2000/svg" width="131" height="164" viewBox="0 0 131 164"><g><g><path fill="#29a7de" d="M85.472 72.323l34.745-66.517c.47-1.398.273-2.678-.573-3.84-.862-1.163-1.98-1.745-3.379-1.745H102.78c-2.178 0-3.495 1.016-3.96 3.024L63.024 72.478l45.738 88.73c.464 1.862 1.78 2.797 3.952 2.797h13.494c1.236 0 2.244-.427 3.017-1.28.78-.854 1.162-1.818 1.162-2.907 0-.618-44.913-87.495-44.913-87.495z"/></g><g><path fill="#29a7de" d="M21.193 72.549l-20.19 38.218c-.464 1.398-.266 2.678.581 3.84.853 1.163 1.98 1.745 3.37 1.745h13.494c2.171 0 3.488-1.016 3.952-3.025l21.242-40.932-19.6-37.446c-.465-1.861-1.782-2.788-3.953-2.788H6.595c-1.237 0-2.252.419-3.025 1.28-.772.853-1.162 1.817-1.162 2.906 0 .619 18.785 36.202 18.785 36.202z"/></g><g><path fill="#f0f" d="M62.967 28.981L49.568 3.014c-.464-1.86-1.78-2.788-3.95-2.788H32.128c-1.243 0-2.25.42-3.03 1.28-.774.846-1.164 1.817-1.164 2.906 0 .383 13.517 26.607 23.745 46.4z"/></g><g><path fill="#f0f" d="M51.65 94.126l-23.48 44.943c-.463 1.39-.272 2.67.582 3.834.853 1.162 1.979 1.744 3.377 1.744h13.487c2.17 0 3.488-1.01 3.952-3.025l13.31-25.731z"/></g></g></svg>