<svg xmlns="http://www.w3.org/2000/svg" width="96" height="48" viewBox="0 0 96 48"><g><g><path fill="#29a7de" d="M24.597 21.286l9.911-18.974a1.144 1.144 0 0 0-.164-1.096c-.245-.331-.564-.497-.963-.497h-3.847c-.622 0-.997.29-1.13.863L18.193 21.33 31.24 46.64c.132.53.508.798 1.127.798h3.849c.353 0 .641-.122.861-.365.222-.244.332-.52.332-.83 0-.176-12.812-24.957-12.812-24.957z"/></g><g><path fill="#29a7de" d="M6.261 21.35L.502 32.251c-.131.4-.074.765.167 1.096.244.332.565.498.962.498h3.849c.619 0 .995-.29 1.127-.863l6.06-11.676-5.593-10.68c-.132-.532-.508-.797-1.127-.797H2.099c-.353 0-.642.12-.863.365-.22.244-.332.52-.332.83 0 .176 5.359 10.326 5.359 10.326z"/></g><g><path fill="#f0f" d="M18.178 8.922l-3.822-7.407c-.132-.53-.508-.795-1.127-.795H9.38c-.354 0-.642.12-.864.365a1.193 1.193 0 0 0-.332.83c0 .108 3.856 7.588 6.773 13.234z"/></g><g><path fill="#f0f" d="M14.95 27.505L8.25 40.325c-.132.397-.077.762.166 1.094.244.33.565.497.964.497h3.847c.62 0 .995-.288 1.127-.863l3.797-7.34z"/></g><g><path fill="#180f29" d="M45.979 21.29l3.08 8.113s-.704-.003-1.24-.003-.716-.433-.716-.433l-2.013-5.491-2.192 5.927H41.1l3.082-8.113-3.102-8.133h1.123c.789 0 .877.495.877.495l2.01 5.452 2.173-5.947h1.817z"/></g><g><path fill="#180f29" d="M60.384 14.053v15.35h-1.68V13.157s-.04.008.84 0c.879-.009.84.896.84.896z"/></g><g><path fill="#180f29" d="M70.138 16.738c0-1.024.337-1.901 1.012-2.63.674-.728 2.017-.931 2.98-.931.964 0 2.306.203 2.98.932.675.728 1.012 1.605 1.012 2.629v9.124c0 1.024-.337 1.9-1.012 2.629-.674.728-2.016.932-2.98.932-.95 0-2.29-.204-2.97-.932-.682-.73-1.022-1.605-1.022-2.63zm1.638 9.124c0 .538.18.998.54 1.378.36.38 1.313.41 1.814.41.501 0 1.455-.03 1.815-.41.36-.38.54-.84.54-1.378v-9.124c0-.538-.18-.998-.54-1.38-.36-.38-1.314-.41-1.815-.41-.5 0-1.455.03-1.814.41-.36.382-.54.842-.54 1.38z"/></g><g><path fill="#180f29" d="M94.214 25.08V13.157h1.679v16.246s-.5-.003-1.144-.003c-.643 0-.817-.473-.817-.473l-4.298-11.355v11.831h-1.68V13.157s.52.008 1.217 0c.698-.009.813.54.813.54z"/></g></g></svg>